<svg width="425" height="91" viewBox="0 0 112.448 24.077" xml:space="preserve" xmlns="http://www.w3.org/2000/svg"><g transform="translate(-40.646 -125.27)"><path style="fill:#e6edf3;fill-opacity:1;stroke:none;stroke-width:.159279;stroke-opacity:1" d="M40.759 125.374v23.374H47.2v-7.888h4.831c4.214-.04 6.635-3.286 6.608-7.433-.026-4.147-1.942-7.992-6.608-7.97zm6.442 5.038h3.304c1.134.031 1.832 1.363 1.858 2.726.027 1.363-.75 2.756-1.858 2.808H47.2zM59.425 125.374l.082 23.374h6.443v-23.374zM66.63 125.374v5.39h4.482v17.984h6.462v-17.985h4.75v-5.39zM82.988 125.374v23.374H89.5v-8.76h6.249v-5.52h-6.25v-3.503h6.483v-5.591zM102.027 125.374l-9.023 23.374h6.366l1.576-4.06h7.739l1.693 4.06h6.6l-8.673-23.374zm2.963 8.481 2.293 6.133h-4.672zM117.092 125.374l.06 23.374h13.287v-5.431h-6.891v-17.943zM131.097 125.374l.06 23.374h13.287v-5.431h-6.892v-17.943zM146.266 125.374v15.753h6.278v-15.753z"/><circle style="fill:#e6edf3;fill-opacity:1;stroke:none;stroke-width:.159279;stroke-opacity:1" cx="149.405" cy="145.667" r="3.577"/></g></svg>