<?xml version="1.0" encoding="UTF-8" standalone="no"?>
<svg width="500" height="75.282" viewBox="0 0 132.292 19.918" xml:space="preserve" xmlns="http://www.w3.org/2000/svg"><g style="fill:#e6edf3;fill-opacity:1"><path style="fill:#e6edf3;fill-opacity:1;stroke:none;stroke-width:.159279;stroke-dasharray:none" d="M201.046 124.512c-.222.004-.588.01-.844.297-.255.288-.316.5-.31.659.007.159.003 46.264.005 46.531a.98.98 0 0 0 .277.713c.207.223.589.301.9.307.313.005 17.033.05 18.485-.005 1.452-.055 3.304-1.978 4.25-3.32.945-1.34 3.732-6.745 4.831-13.85 1.099-7.105.413-16.158-1.284-20.849-1.698-4.691-1.227-3.545-2.897-6.536-1.67-2.99-4.302-3.894-5.192-3.889-.89.005-18-.062-18.222-.058zm14.246 11.408c.324-.007.963.39 1.381 1.133.418.743 1.009 2.878 1.205 4.298.307 2.215.536 5.413.542 6.813.012 2.799-.384 6.614-.876 8.701-.491 2.088-.751 2.567-1.255 3.359-.505.791-.922 1.205-1.292 1.207-.37.002-3.385.01-3.643-.01-.258-.021-.568-.225-.7-.351-.134-.127-.236-.406-.25-.628-.012-.221 0-23.451-.003-23.67-.003-.22.018-.399.186-.597.167-.2.315-.244.556-.248.242-.003 3.826 0 4.149-.007zM240.92 124.879c.757.011 11.27-.006 11.893 0 .624.006.955.403 1.23.79.275.386.507.9.505 1.275-.003.374-.014 6.652-.015 7.14 0 .487-.225 1.023-.444 1.323-.22.3-.692.833-1.3.828-.607-.005-7.936.014-8.35.015-.415.001-1.292 1.516-1.665 2.248-.373.732-.648 1.662-.65 1.965-.001.304.049.394.265.693.216.299.481.388.764.409.283.02 6.83-.018 7.218-.01.387.006 1.04.198 1.397.564.356.367.723 1.02.72 1.322-.005.302 0 6.459.01 6.884.01.424-.133.983-.382 1.277-.248.295-.552.542-.845.533-.293-.008-8.35-.024-8.616-.023-.265 0-.703.023-.935.264-.231.242-.357.597-.343.768.015.17.255 2.684.584 4.257.33 1.573.781 2.613 1.043 3.027.262.414.46.653.696.828.237.176.826.36 1.05.359.222 0 7.23.009 7.711.003.481-.006.95.222 1.234.504.283.281.398.714.409 1 .01.285-.002 8.396 0 8.694.002.3-.104.713-.278.964-.174.251-.468.521-.774.526-.305.004-11.852.005-12.44 0-.587-.005-1.674.295-3.708-1.752-2.033-2.048-4.554-8.11-5.564-11.987-1.011-3.876-.81-6.553-.816-10.79-.005-4.238.883-11.316 2.343-15.143 1.461-3.828 3.398-6.5 5.039-7.764 1.64-1.264 2.258-1.003 3.014-.991zM264.499 125.125c.313.005 8.097.002 8.731 0 .634-.002 1.933.227 2.628.861.695.634.771 1.152.953 2.11.18.956.437 2.873.437 2.873s.329-1.866.54-2.827c.213-.96.396-1.484.888-2.054.492-.57 1.639-.903 2.146-.876.507.027 8.614-.008 9.403 0 .789.008 1.645.497 2.54 1.519.895 1.02 1.987 2.255 3.125 8.03 1.138 5.775 1.087 6.546 1.577 11.505.49 4.958 1.134 14.203 1.11 18.25-.026 4.048-.158 4.674-.439 5.986-.28 1.313-.36 1.454-.774 1.979-.414.524-1.124 1.047-1.562 1.029-.438-.019-11.115-.02-11.622-.015-.506.004-1.143-.37-1.401-.598-.258-.23-.712-.954-.687-1.635.026-.682.021-7.394.015-7.782-.006-.39.085-.843.467-1.212.382-.37 1.081-.384 1.504-.38.423.005 1.808-.01 2.22-.03.41-.018.76-.297 1.021-.627.262-.33.374-1.152.365-1.635l-.204-10.76s-.41-5.77-.643-7.505c-.232-1.736-.58-3.457-.876-3.971-.294-.514-.67-.899-1.05-.906-.382-.007-1.565 0-1.753 0-.188 0-.405.125-.555.292-.15.168-.261.412-.262.672-.001.26.013 15.02-.01 15.79-.025.769-.22 1.303-.497 1.61-.276.308-.717.55-1.115.547-.398-.003-7.318-.002-7.67-.01-.353-.008-.687-.23-.91-.495-.221-.266-.331-.6-.33-.992.003-.392.074-14.796.074-15.285-.001-.49.04-1.28-.239-1.646a1.209 1.209 0 0 0-.95-.5c-.317-.01-.67-.009-1.056.004s-.895.35-1.266 1.058c-.371.708-1.45 6.793-1.642 9.101-.192 2.308-.344 3.847-.454 6.195-.11 2.347-.166 6.9-.165 7.288 0 .388.278 1.102.57 1.357.294.254.828.44 1.18.452.35.011 1.793.005 2.13.02.336.015.846.152 1.075.39.229.24.393.354.392.615 0 .261.001 8.596-.01 8.899-.012.302-.193.826-.465 1.106-.272.28-.843.62-1.268.608-.425-.011-11.115-.006-11.571-.01-.457-.005-1.685-.71-2.001-1.287-.317-.576-.76-1.881-.734-2.718.026-.837-.188-6.328.067-10.956.255-4.628.897-11.763 1.752-16.761.855-4.998 2.702-12.18 3.154-13.199.452-1.019 1.027-1.867 1.752-2.453.725-.585 2.053-1.027 2.365-1.021zM310.285 124.336c-.498-.006-1.86.25-2.744.71-.884.458-1.169.467-2.395 2.035-1.226 1.569-2.757 4.284-3.913 7.884-1.155 3.601-2.302 7.774-2.219 13.71.083 5.936.215 6.768.76 9.826.544 3.058 2.07 6.97 2.946 8.7.875 1.731 2.179 3.91 3.36 4.674 1.182.764 3.152 1.391 3.957 1.401.806.01 8.141-.019 8.972 0 .832.019 1.547-.282 2.49-.876.943-.593 1.932-1.573 2.861-2.862.929-1.288 1.81-2.962 2.453-4.905.643-1.943 2.707-6.325 2.862-15.958.155-9.634-1.907-14.796-3.387-18.148-1.48-3.353-2.353-3.995-3.621-4.965-1.27-.97-2.664-1.227-3.213-1.226-.548.001-8.67.006-9.169 0zm4.41 11.534c.867-.013 1.848.74 2.242 1.177.394.437.701 1.395 1.174 3.466.474 2.072.835 5.291.818 7.987-.018 2.696-.54 6.402-.94 8.206-.4 1.805-.581 2.11-.727 2.525-.146.414-.637 1.427-1.005 1.694-.367.266-1.32.553-2 .555-.68 0-1.725-.314-1.986-.527-.26-.212-.72-.646-1.051-1.635-.331-.988-.798-3.157-1.051-4.964-.253-1.806-.263-4.085-.254-5.854.009-1.77.683-7.208 1.013-8.454.33-1.245.872-2.646 1.291-3.122.42-.476 1.609-1.04 2.476-1.054zM345.107 143.536c1.028.71 2.052.6 2.694.832.642.231.754.34.927.584.173.243.39.77.38 1.168-.01.398-.406 12.683-.406 12.683s.06 12.341.052 12.771c-.008.43.17 1.193.465 1.518.293.325.605.397.96.402.354.005 7.282.022 7.732.01.45-.011.768-.38 1.105-.918.337-.54.38-1.499.382-2.364.001-.866.413-41.168.454-42.122.041-.955-.123-1.587-.413-2.148-.29-.56-.893-1.138-1.415-1.153-.521-.015-6.762-.008-7.162-.01-.4-.002-.983.172-1.28.48-.297.307-.494.852-.48 1.504.001.055.007 3.048-.01 5.461-1.066-.06-1.847-.556-2.153-1.158-.306-.602-.402-.75-.549-1.49-.147-.739-.012-2.063-.165-2.746-.153-.683-.173-.966-.537-1.342-.363-.376-.899-.64-1.548-.682-.65-.04-4.631-.043-5.286-.061-.656-.02-2.303.788-2.788 1.528-.484.739-1.222 2.026-2.147 5.43-.925 3.404-2.443 13.184-3.193 19.984-.75 6.8-.735 16.46-.7 17.345.034.885.18 2.125.686 2.847s1.299 1.469 1.869 1.469h10.176c.658 0 1.388-.155 1.869-.608.481-.452.709-1.034.733-1.857.025-.824-.021-7.035-.021-7.312 0-.276-.302-.947-.621-1.328-.319-.381-.797-.672-1.303-.669-.507.003-1.203.011-1.365.01-.162 0-.6-.168-.76-.34-.16-.174-.445-.564-.494-.868-.049-.304-.403-3.019-.05-7.36.351-4.342.833-8.366 1.07-9.934.237-1.567.732-2.643.732-2.643s1.533 2.375 2.56 3.086zM384.964 124.79c-1.708-.002-4.68.24-5.86 2.187-1.573 2.596-2.561 6.182-3.337 9.78-.776 3.598-1.724 7.626-2.284 14.677-.56 7.052-.42 17.119-.387 18.198.033 1.078.41 2.18.749 2.663.338.483 1.457 1.246 1.981 1.244.525 0 8.827.05 9.31.056.482.006 1.25-.474 1.482-.908.23-.434.298-1.435.29-1.734-.007-.299 0-6.694-.01-7.31-.011-.617-.18-1.18-.413-1.404-.232-.225-.459-.458-.92-.468-.462-.01-.586 0-.847-.01-.261-.009-.5-.109-.73-.399-.23-.29-.22-.63-.22-1.091-.001-.46.071-2.232.098-2.81.027-.579.315-1.328.706-1.764.39-.435 1.119-.998 1.635-1.004.516-.006 2.367-.035 2.938-.037.572-.002 1.514.351 2.18.936.667.585.87 1.67.873 2.113.004.443.042 1.848.031 2.263-.01.415-.202.976-.357 1.19-.154.214-.512.527-.811.525-.3-.002-.32.008-.716.021-.396.013-.912.178-1.127.483-.215.305-.424.792-.441 1.461-.017.67.003 7.053 0 7.377-.003.323.056 1.28.355 1.746.3.467.999.763 1.486.782.486.02 9.107-.038 9.693-.072.586-.035 1.013-.442 1.49-1.11.476-.668.887-2.209.934-2.92.047-.712.19-11.085-.07-18.3-.262-7.217-.974-10.564-1.624-14.084-1.3-7.04-1.884-7.404-3.241-10.016-1.357-2.61-4.868-2.193-5.671-2.22-.803-.026-5.292-.014-5.992-.015-.175 0-.604-.027-1.173-.027zm3.462 11.303c.497.002.99.007 1.183.01.384.009.862.906 1.08 1.593.219.686.402 1.684.57 2.832.168 1.148.438 4.585.438 4.585-.809-.667-1.851-1.758-2.599-1.753-.747.005-.791-.027-1.577-.029-.786-.002-1.872 1.016-2.672 1.738 0 0 .314-3.347.57-4.716.256-1.37.478-2.221.744-2.833.267-.611.664-1.395 1.066-1.416.201-.01.7-.013 1.197-.011zM453.889 124.885c-1.708 0-4.682.241-5.861 2.188-1.573 2.596-2.561 6.183-3.337 9.78-.776 3.598-1.724 7.626-2.284 14.678-.56 7.051-.42 17.118-.387 18.197.033 1.078.411 2.181.75 2.664.337.483 1.456 1.245 1.98 1.243.525 0 8.827.05 9.31.056.482.006 1.25-.474 1.482-.908.23-.434.298-1.435.29-1.733-.007-.3 0-6.694-.01-7.31-.01-.617-.18-1.181-.412-1.405-.233-.224-.46-.457-.92-.467-.462-.01-.586-.001-.847-.01-.262-.01-.5-.109-.731-.4-.23-.29-.219-.63-.22-1.091 0-.46.072-2.232.098-2.81.027-.579.315-1.327.706-1.763.391-.435 1.12-.999 1.635-1.005.517-.006 2.367-.034 2.939-.036.571-.002 1.513.351 2.18.936.667.585.869 1.669.873 2.112.004.443.042 1.85.03 2.264-.01.415-.202.975-.356 1.19-.155.213-.512.527-.812.525-.3-.002-.319.008-.715.021-.397.012-.913.178-1.127.483-.215.304-.424.791-.442 1.46-.017.67.003 7.053 0 7.377-.003.324.056 1.28.356 1.747.3.467.998.762 1.485.781.487.02 9.107-.037 9.693-.072.587-.035 1.013-.442 1.49-1.11.477-.667.887-2.208.934-2.92.047-.711.19-11.085-.07-18.3-.261-7.216-.973-10.563-1.623-14.083-1.3-7.04-1.885-7.405-3.242-10.016-1.357-2.61-4.868-2.194-5.671-2.22-.803-.026-5.292-.014-5.991-.015-.175 0-.604-.027-1.173-.028zm3.46 11.304c.498.002.992.007 1.184.012.384.008.862.904 1.08 1.59.22.687.402 1.686.57 2.834.168 1.147.438 4.584.438 4.584-.809-.667-1.851-1.757-2.599-1.752-.748.005-.79-.028-1.576-.03-.786-.002-1.873 1.016-2.672 1.738 0 0 .313-3.347.57-4.716.256-1.369.477-2.221.744-2.833.267-.611.664-1.394 1.066-1.415.2-.011.7-.014 1.196-.012zM403.987 125.075c.397.004 37.866.023 38.193.021.327-.002 1.009.008 1.507.487.497.48.544.855.54 1.146-.003.291 0 7.473 0 7.834.001.362-.087.867-.39 1.328-.305.46-.745.618-1.146.614-.4-.004-3.57-.041-3.887-.033-.317.008-.904.044-1.109.327a1.498 1.498 0 0 0-.262.957c.015.332-.015 32.445-.007 33.367a3.223 3.223 0 0 1-.555 1.832c-.171.246-.856.645-1.789.592-.932-.054-6.053-.015-6.587-.016-.535-.001-1.268-.273-1.69-.797-.421-.525-.484-1.27-.497-1.889-.013-.617-.019-33.102-.026-33.325-.007-.222.02-.529-.153-.722-.174-.194-.646-.23-.84-.227-.194.003-5.103-.008-5.358-.015-.254-.007-.65.009-.92.285-.272.275-.36.592-.348.952.012.36-.054 32.462-.062 33.098-.008.636-.3 1.485-.66 1.89-.36.403-.814.716-1.312.734-.498.018-7.153-.009-7.491-.005-.339.004-.795-.24-1.147-.76-.351-.518-.504-1.372-.487-2.336.017-.965.028-32.065.02-32.587-.007-.522.025-.787-.135-1.037-.16-.249-.476-.375-.8-.365-.322.011-3.272.008-3.693.021-.42.013-.96-.367-1.146-.639-.187-.271-.447-1.147-.464-1.547-.017-.4-.03-6.086-.05-6.72-.04-.773.247-1.425.647-1.807.399-.383 1.708-.662 2.104-.658zM495.651 125.212c.512.595.643 1.706.76 2.424.116.717.606 5.806.54 6.716-.067.91-.282 1.162-.57 1.402-.288.239-.98.525-1.883.489-.903-.036-6.14-.07-6.552-.076-.412-.006-1.516-.056-2.428 2.01-.912 2.067-1.76 7.475-1.81 10.95-.05 3.476 1.107 8.907 1.314 9.666.207.758.376 1.391.73 1.869.354.477.845.946 1.226.963.382.017 6.758.02 7.344.015.587-.005 1.552.174 2.117.832.565.658.588 2.706.57 3.183-.018.477-.032 3.194-.015 3.971.017.778.021 2.476-.54 3.052-.561.575-1.533.89-2.248.89-.716 0-7.27-.035-8.133-.029-.862.007-4.536.25-6.453-1.43-1.917-1.681-3.928-5.8-5.169-9.929-1.24-4.13-1.422-8.144-1.518-14.6-.096-6.456 1.8-12.503 2.774-15.068.973-2.564 2.079-4.217 2.978-5.373.9-1.155 1.026-1.203 1.723-1.679.698-.475 2.148-.932 2.628-.927.481.006 9.692.01 10.454.015.762.005 1.649.07 2.161.664zM498.576 128.1c-.012-.802.222-2.126.547-2.633.324-.506.881-.955 1.66-.955.778 0 3.841.003 4.361.022.52.018 2.957.095 3.313.181.355.087.695.196.886 1.65.192 1.455.06 6.464.083 10.552 1.438.123 2.579-.008 3.82-.021.603-.01.778-.134 1.26-1.363.48-1.229.827-2.627 1.073-4.46.246-1.833.348-3.058.423-3.706.076-.649.148-1.174.548-1.755.399-.582 1.112-.89 1.94-.867.83.022 4.569.062 5.245.061.676 0 1.954.031 2.664.816.71.785.72 1.423.708 1.996-.012.574-.313 3.385-1.197 6.39-.884 3.006-1.713 5.319-5.241 6.924 1.764 1.225 3.349 1.607 4.326 3.025.69 1.003 2.108 4.543 2.353 13.834.246 9.292.36 10.276.345 10.933-.014.657-.464 2.74-.964 3.438-.5.698-1.913 1.328-2.607 1.348-.695.02-8.372.012-8.95 0-.579-.012-1.589-.161-1.928-.497-.339-.335-.615-1.135-.642-1.606-.027-.47.039-5.044-.015-6.424-.053-1.38.269-2.357.526-2.584.557-.593.733-.676 1.81-.686 1.078-.01 1.246-.242 1.387-.453.141-.211.252-1.089.253-1.42 0-.331-.039-4.98-.223-6.727-.185-1.747-.145-2.876-.672-3.752-.527-.876-.803-1.093-1.445-1.329-.643-.235-1.733-.183-2.41-.138-.676.044-1.614.182-2.19.292-.687 4.65-.8 21.978-.777 23.002.023 1.023-.15 1.463-.553 1.877-.402.415-1.568.456-1.854.46-.287.003-5.11-.017-5.86-.015-.75.002-1.38-.068-1.833-.613-.453-.546-.477-1.382-.508-1.82-.031-.439.349-42.175.338-42.977z" transform="translate(-80.67 -50.178) scale(.40357)"/></g></svg>