<svg width="512" height="512" xmlns="http://www.w3.org/2000/svg"><path style="fill:#e06362" d="M192 80V32h128v64h-64v32h-64z"/><path style="fill:#50b24f" d="M192 304v-48h-64v64H64v-96h64v-32h64v-64h128v64h64v-32h64v64h-64v32h-64v96H192z"/><path style="fill:#629235" d="M0 480v-32h64v32h64v32H0Zm256 0v-32h64v-32h64v96H256zm192-48v-48h-64v-32h-64v-96h64v-32h64v-64h-64v32h-64v-64h-64V96h64V0h192v480h-64zm-320 0v-16H0V0h192v192h-64v32H64v96h64v-64h64v192h-64z"/><path style="fill:#5d5d09" d="M192 16V0h128v32H192z"/><path style="fill:#2a5310" d="M128 496v-16H64v-32H0v-32h128v32h64v-96h192v32h64v96h64v32H384v-96h-64v32h-64v64H128z"/></svg>