<?xml version="1.0" encoding="UTF-8" standalone="no"?>
<!-- Created with Inkscape (http://www.inkscape.org/) -->

<svg
   version="1.1"
   id="svg1"
   width="512"
   height="512"
   viewBox="0 0 512 512"
   sodipodi:docname="favicon.svg"
   inkscape:version="1.3.2 (091e20e, 2023-11-25, custom)"
   xmlns:inkscape="http://www.inkscape.org/namespaces/inkscape"
   xmlns:sodipodi="http://sodipodi.sourceforge.net/DTD/sodipodi-0.dtd"
   xmlns="http://www.w3.org/2000/svg"
   xmlns:svg="http://www.w3.org/2000/svg">
  <defs
     id="defs1" />
  <sodipodi:namedview
     id="namedview1"
     pagecolor="#ffffff"
     bordercolor="#000000"
     borderopacity="0.25"
     inkscape:showpageshadow="2"
     inkscape:pageopacity="0.0"
     inkscape:pagecheckerboard="0"
     inkscape:deskcolor="#d1d1d1"
     inkscape:zoom="0.62079004"
     inkscape:cx="-228.74078"
     inkscape:cy="496.94741"
     inkscape:window-width="1920"
     inkscape:window-height="1137"
     inkscape:window-x="1912"
     inkscape:window-y="-8"
     inkscape:window-maximized="1"
     inkscape:current-layer="g1" />
  <g
     inkscape:groupmode="layer"
     inkscape:label="Image"
     id="g1">
    <path
       style="fill:#e06362"
       d="M 192,80 V 32 h 64 64 v 32 32 h -32 -32 v 16 16 h -32 -32 z"
       id="path6" />
    <path
       style="fill:#50b24f"
       d="m 192,304 v -48 h -32 -32 v 32 32 H 96 64 v -48 -48 h 32 32 v -16 -16 h 32 32 v -32 -32 h 64 64 v 32 32 h 32 32 v -16 -16 h 32 32 v 32 32 h -32 -32 v 16 16 h -32 -32 v 48 48 h -64 -64 z"
       id="path5" />
    <path
       style="fill:#629235"
       d="m 0,480 v -32 h 32 32 v 16 16 h 32 32 v 16 16 H 64 0 Z m 256,0 v -32 h 32 32 v -16 -16 h 32 32 v 48 48 h -64 -64 z m 192,-48 v -48 h -32 -32 v -16 -16 h -32 -32 v -48 -48 h 32 32 v -16 -16 h 32 32 v -32 -32 h -32 -32 v 16 16 H 352 320 V 160 128 H 288 256 V 112 96 h 32 32 V 48 0 h 96 96 v 240 240 h -32 -32 z m -320,0 V 416 H 64 0 V 208 0 h 96 96 v 96 96 h -32 -32 v 16 16 H 96 64 v 48 48 h 32 32 v -32 -32 h 32 32 v 96 96 h -32 -32 z"
       id="path4" />
    <path
       style="fill:#5d5d09"
       d="M 192,16 V 0 h 64 64 v 16 16 h -64 -64 z"
       id="path3" />
    <path
       style="fill:#2a5310"
       d="M 128,496 V 480 H 96 64 V 464 448 H 32 0 v -16 -16 h 64 64 v 16 16 h 32 32 v -48 -48 h 96 96 v 16 16 h 32 32 v 48 48 h 32 32 v 16 16 h -64 -64 v -48 -48 h -32 -32 v 16 16 h -32 -32 v 32 32 h -64 -64 z"
       id="path2" />
  </g>
</svg>
