<?xml version="1.0" encoding="UTF-8" standalone="no"?>
<!-- Created with Inkscape (http://www.inkscape.org/) -->

<svg
   width="150"
   height="150"
   viewBox="0 0 39.687499 39.6875"
   version="1.1"
   id="svg1"
   xml:space="preserve"
   inkscape:version="1.3.2 (091e20e, 2023-11-25, custom)"
   sodipodi:docname="mask-icon.svg"
   inkscape:export-filename="google-touch-icon-192.png"
   inkscape:export-xdpi="122.88"
   inkscape:export-ydpi="122.88"
   xmlns:inkscape="http://www.inkscape.org/namespaces/inkscape"
   xmlns:sodipodi="http://sodipodi.sourceforge.net/DTD/sodipodi-0.dtd"
   xmlns="http://www.w3.org/2000/svg"
   xmlns:svg="http://www.w3.org/2000/svg"><sodipodi:namedview
     id="namedview1"
     pagecolor="#ffffff"
     bordercolor="#000000"
     borderopacity="0.25"
     inkscape:showpageshadow="2"
     inkscape:pageopacity="0.0"
     inkscape:pagecheckerboard="0"
     inkscape:deskcolor="#d1d1d1"
     inkscape:document-units="px"
     inkscape:zoom="3.2035073"
     inkscape:cx="28.718524"
     inkscape:cy="92.866965"
     inkscape:window-width="1920"
     inkscape:window-height="1137"
     inkscape:window-x="1912"
     inkscape:window-y="-8"
     inkscape:window-maximized="1"
     inkscape:current-layer="layer1" /><defs
     id="defs1" /><g
     inkscape:label="Layer 1"
     inkscape:groupmode="layer"
     id="layer1"
     transform="translate(-85.15625,-128.65625)"><rect
       style="fill:#ffffff;fill-opacity:1;stroke-width:0.270567"
       id="rect33577"
       width="39.6875"
       height="39.6875"
       x="85.15625"
       y="128.65625"
       ry="0" /><path
       style="fill:#000000;fill-opacity:1"
       d="m 86.082293,147.97083 v -1.19063 h 1.190625 1.190625 v 1.19063 1.19062 h -1.190625 -1.190625 z m 9.525,0.66146 v -0.52917 h 1.190625 1.190625 v -0.66146 -0.66146 H 105 h 7.01146 v 0.66146 0.66146 h 1.19062 1.19063 v 0.52917 0.52916 h -2.24896 -2.24896 v -0.52916 -0.52917 h -4.7625 -4.7625 v 0.52917 0.52916 h -2.381247 -2.38125 z m 25.929167,-0.66146 v -1.19063 h 1.19063 1.19062 v 1.19063 1.19062 h -1.19062 -1.19063 z"
       id="path33577" /><path
       style="fill:#000000;fill-opacity:1"
       d="m 88.463543,146.11874 v -0.66145 h 1.190625 1.190625 v -0.66146 -0.66146 h 2.38125 2.38125 v 0.66146 0.66146 h 1.190625 1.190625 v 0.66145 0.66146 h -1.190625 -1.190625 v -0.66146 -0.66145 h -2.38125 -2.38125 v 0.66145 0.66146 h -1.190625 -1.190625 z m 23.547917,0 v -0.66145 h 1.19062 1.19063 v -0.66146 -0.66146 h 2.38125 2.38124 v 0.66146 0.66146 h 1.19064 1.19062 v 0.66145 0.66146 h -1.19062 -1.19064 v -0.66146 -0.66145 h -2.38124 -2.38125 v 0.66145 0.66146 h -1.19063 -1.19062 z m -11.64167,-1.32291 v -0.66146 h 1.19063 1.19062 v 0.66146 0.66146 h -1.19062 -1.19063 z m 7.14375,0 v -0.66146 h 1.19063 1.19062 v 0.66146 0.66146 h -1.19062 -1.19063 z"
       id="path33576" /><path
       style="fill:#000000;fill-opacity:1"
       d="m 90.844793,152.33645 v -0.52916 h 1.190625 1.190625 v 0.52916 0.52917 h -1.190625 -1.190625 z m 7.14375,0 v -0.52916 H 105 h 7.01146 v 0.52916 0.52917 H 105 97.988543 Z m 18.785417,0 v -0.52916 h 1.19062 1.19062 v 0.52916 0.52917 h -1.19062 -1.19062 z"
       id="path33575" /><path
       style="fill:#000000;fill-opacity:1"
       d="m 88.463543,151.14583 v -0.66146 h -1.190625 -1.190625 v -0.66146 -0.66146 h 1.190625 1.190625 v 0.66146 0.66146 h 1.190625 1.190625 v 0.66146 0.66146 h -1.190625 -1.190625 z m 7.14375,0 v -0.66146 h -1.190625 -1.190625 v -0.66146 -0.66146 h 2.38125 2.38125 v 0.66146 0.66146 h 1.190625 1.190622 v 0.66146 0.66146 h -2.381247 -2.38125 z m 14.287497,0 v -0.66146 h 1.05834 1.05833 v -0.66146 -0.66146 h 2.38125 2.38125 v 0.66146 0.66146 h -1.19063 -1.19062 v 0.66146 0.66146 h -2.24896 -2.24896 z m 9.26041,0 v -0.66146 h 1.19064 1.19062 v -0.66146 -0.66146 h 1.19063 1.19062 v 0.66146 0.66146 h -1.19062 -1.19063 v 0.66146 0.66146 h -1.19062 -1.19064 z"
       id="path33574" /></g></svg>
